<svg width="24" height="24" viewBox="0 0 24 24" fill="none" xmlns="http://www.w3.org/2000/svg">
<circle cx="12" cy="12" r="12" fill="#E91919"/>
<path fill-rule="evenodd" clip-rule="evenodd" d="M12 7.83333C11.116 7.83333 10.2681 8.18452 9.64302 8.80964C9.0179 9.43477 8.66671 10.2826 8.66671 11.1667C8.66671 12.4575 9.5066 13.7101 10.4275 14.6822C10.8795 15.1592 11.3328 15.5498 11.6737 15.8212C11.8005 15.9222 11.9113 16.0063 12 16.0719C12.0888 16.0063 12.1996 15.9222 12.3264 15.8212C12.6673 15.5498 13.1206 15.1592 13.5726 14.6822C14.4935 13.7101 15.3334 12.4575 15.3334 11.1667C15.3334 10.2826 14.9822 9.43477 14.3571 8.80964C13.7319 8.18452 12.8841 7.83333 12 7.83333ZM12 16.5833C11.7689 16.93 11.7688 16.93 11.7687 16.9299L11.7675 16.9291L11.7647 16.9272L11.7552 16.9208C11.7471 16.9152 11.7355 16.9073 11.7207 16.8971C11.6911 16.8766 11.6486 16.8467 11.595 16.808C11.4878 16.7306 11.336 16.6176 11.1546 16.4731C10.7923 16.1846 10.3081 15.7678 9.82256 15.2553C8.86848 14.2482 7.83337 12.7925 7.83337 11.1667C7.83337 10.0616 8.27236 9.00179 9.05376 8.22039C9.83516 7.43899 10.895 7 12 7C13.1051 7 14.1649 7.43899 14.9463 8.22039C15.7277 9.00179 16.1667 10.0616 16.1667 11.1667C16.1667 12.7925 15.1316 14.2482 14.1775 15.2553C13.692 15.7678 13.2078 16.1846 12.8455 16.4731C12.6641 16.6176 12.5123 16.7306 12.4051 16.808C12.3515 16.8467 12.309 16.8766 12.2794 16.8971C12.2646 16.9073 12.253 16.9152 12.2449 16.9208L12.2354 16.9272L12.2326 16.9291L12.2317 16.9297C12.2316 16.9297 12.2312 16.93 12 16.5833ZM12 16.5833L12.2312 16.93C12.0912 17.0233 11.9086 17.0232 11.7687 16.9299L12 16.5833Z" fill="white"/>
<path fill-rule="evenodd" clip-rule="evenodd" d="M12 10.3333C11.5398 10.3333 11.1667 10.7064 11.1667 11.1667C11.1667 11.6269 11.5398 12 12 12C12.4603 12 12.8334 11.6269 12.8334 11.1667C12.8334 10.7064 12.4603 10.3333 12 10.3333ZM10.3334 11.1667C10.3334 10.2462 11.0796 9.5 12 9.5C12.9205 9.5 13.6667 10.2462 13.6667 11.1667C13.6667 12.0871 12.9205 12.8333 12 12.8333C11.0796 12.8333 10.3334 12.0871 10.3334 11.1667Z" fill="white"/>
</svg>
