<svg width="112" height="28" viewBox="0 0 112 28" fill="none" xmlns="http://www.w3.org/2000/svg">
<path d="M3.136 11L4.768 4.632L6.64 11H7.568L10.976 4.632L11.04 11H13.504L13.12 0.327999H11.024L7.568 6.712L5.744 0.327999H3.712L0.672 11H3.136ZM21.5959 0.0879993C20.2199 0.0879993 18.5719 0.407999 17.2119 1.704C16.2039 2.664 15.4519 4.12 15.4519 5.992C15.4519 7.736 16.2199 8.968 16.9559 9.72C18.2199 11 19.6919 11.24 21.0199 11.24C22.4119 11.24 24.0919 10.968 25.4359 9.592C26.5559 8.44 27.0839 6.792 27.0839 5.272C27.0839 3.704 26.4919 2.36 25.5799 1.48C24.8759 0.808 23.6439 0.0879993 21.5959 0.0879993ZM21.4999 2.36C22.1559 2.36 23.0039 2.504 23.7079 3.192C24.4119 3.88 24.5559 4.744 24.5559 5.432C24.5559 6.536 24.1399 7.464 23.5639 8.056C22.7799 8.856 21.8999 8.968 21.1799 8.968C20.4279 8.968 19.5639 8.808 18.8439 8.072C18.3479 7.576 17.9799 6.808 17.9799 5.832C17.9799 4.936 18.3319 4.04 18.9559 3.384C19.5959 2.712 20.4439 2.36 21.4999 2.36ZM32.021 0.327999H29.557L28.245 11H30.709L31.269 6.408H35.525L34.965 11H37.429L38.741 0.327999H36.277L35.781 4.328H31.525L32.021 0.327999ZM41.0726 0.327999L39.7606 11H41.9526L47.7126 4.072L46.8486 11H49.3126L50.6246 0.327999H48.4486L42.6726 7.24L43.5366 0.327999H41.0726ZM58.7713 2.408L59.0273 0.327999H51.9233L51.6673 2.408H53.9713L52.9153 11H55.3793L56.4353 2.408H58.7713ZM65.3146 0.0879993C63.9386 0.0879993 62.2906 0.407999 60.9306 1.704C59.9226 2.664 59.1706 4.12 59.1706 5.992C59.1706 7.736 59.9386 8.968 60.6746 9.72C61.9386 11 63.4106 11.24 64.7386 11.24C66.1306 11.24 67.8106 10.968 69.1546 9.592C70.2746 8.44 70.8026 6.792 70.8026 5.272C70.8026 3.704 70.2106 2.36 69.2986 1.48C68.5946 0.808 67.3626 0.0879993 65.3146 0.0879993ZM65.2186 2.36C65.8746 2.36 66.7226 2.504 67.4266 3.192C68.1306 3.88 68.2746 4.744 68.2746 5.432C68.2746 6.536 67.8586 7.464 67.2826 8.056C66.4986 8.856 65.6186 8.968 64.8986 8.968C64.1466 8.968 63.2826 8.808 62.5626 8.072C62.0666 7.576 61.6986 6.808 61.6986 5.832C61.6986 4.936 62.0506 4.04 62.6746 3.384C63.3146 2.712 64.1626 2.36 65.2186 2.36ZM73.2758 0.327999L71.9638 11H74.4278L74.8918 7.256H76.2998C78.0758 7.256 78.9878 6.76 79.4678 6.312C80.1078 5.72 80.5078 4.696 80.5078 3.512C80.5078 2.424 80.1238 1.704 79.6438 1.224C78.7798 0.36 77.6278 0.327999 76.8758 0.327999H73.2758ZM75.4998 2.344H76.2358C76.6038 2.344 77.2438 2.376 77.6278 2.744C77.9158 3.016 77.9798 3.368 77.9798 3.672C77.9798 3.944 77.9318 4.424 77.5638 4.776C77.1478 5.192 76.5398 5.24 76.0118 5.24H75.1318L75.4998 2.344ZM82.432 0.327999L81.12 11H83.312L89.072 4.072L88.208 11H90.672L91.984 0.327999H89.808L84.032 7.24L84.896 0.327999H82.432ZM96.7866 0.327999H94.3226L93.0106 11H95.4746L96.0346 6.408H100.291L99.7306 11H102.195L103.507 0.327999H101.043L100.547 4.328H96.2906L96.7866 0.327999ZM111.934 0.327999H105.838L104.526 11H106.99L108.046 2.408H111.678L111.934 0.327999ZM8.24 18.408L8.496 16.328H1.392L1.136 18.408H3.44L2.384 27H4.848L5.904 18.408H8.24ZM9.79138 16.328L8.47938 27H10.9434L11.4074 23.256H12.8154C14.5914 23.256 15.5034 22.76 15.9834 22.312C16.6234 21.72 17.0234 20.696 17.0234 19.512C17.0234 18.424 16.6394 17.704 16.1594 17.224C15.2954 16.36 14.1434 16.328 13.3914 16.328H9.79138ZM12.0154 18.344H12.7514C13.1194 18.344 13.7594 18.376 14.1434 18.744C14.4314 19.016 14.4954 19.368 14.4954 19.672C14.4954 19.944 14.4474 20.424 14.0794 20.776C13.6634 21.192 13.0554 21.24 12.5274 21.24H11.6474L12.0154 18.344ZM23.9595 27H26.4875L23.6235 16.328H21.3515L15.7195 27H18.3755L19.3835 24.984H23.4155L23.9595 27ZM20.3115 23.096L22.1035 19.336L22.9675 23.096H20.3115ZM31.4116 16.328H28.9476L27.6356 27H30.0996L30.6596 22.408H34.9156L34.3556 27H36.8196L38.1316 16.328H35.6676L35.1716 20.328H30.9156L31.4116 16.328ZM47.4233 24.008C46.8313 24.488 45.9833 24.936 44.9273 24.936C43.9513 24.936 43.1513 24.584 42.6713 24.104C42.1913 23.624 41.8393 22.808 41.8393 21.912C41.8393 21.064 42.1432 20.104 42.7993 19.4C43.4713 18.664 44.3033 18.392 45.3273 18.392C46.7513 18.392 47.5673 19.032 47.9993 19.464L48.3033 16.856C47.9193 16.632 46.9273 16.088 45.2793 16.088C43.3273 16.088 41.9033 16.856 41.0073 17.752C40.0153 18.744 39.3113 20.264 39.3113 22.12C39.3113 23.976 40.0633 25.128 40.7513 25.816C41.3273 26.376 42.4953 27.24 44.5113 27.24C45.8873 27.24 46.7513 26.84 47.1033 26.664L47.4233 24.008ZM48.8388 27H51.3028L52.3748 18.408H56.4228L55.3508 27H57.8148L59.1268 16.328H50.1508L48.8388 27ZM66.4553 16.088C65.0793 16.088 63.4313 16.408 62.0713 17.704C61.0633 18.664 60.3113 20.12 60.3113 21.992C60.3113 23.736 61.0793 24.968 61.8153 25.72C63.0793 27 64.5513 27.24 65.8793 27.24C67.2713 27.24 68.9513 26.968 70.2953 25.592C71.4153 24.44 71.9433 22.792 71.9433 21.272C71.9433 19.704 71.3513 18.36 70.4393 17.48C69.7353 16.808 68.5033 16.088 66.4553 16.088ZM66.3593 18.36C67.0153 18.36 67.8633 18.504 68.5673 19.192C69.2713 19.88 69.4153 20.744 69.4153 21.432C69.4153 22.536 68.9993 23.464 68.4233 24.056C67.6393 24.856 66.7593 24.968 66.0393 24.968C65.2873 24.968 64.4233 24.808 63.7033 24.072C63.2073 23.576 62.8393 22.808 62.8393 21.832C62.8393 20.936 63.1913 20.04 63.8153 19.384C64.4553 18.712 65.3033 18.36 66.3593 18.36ZM74.4164 16.328L73.1044 27H75.5684L76.0324 23.256H77.4404C79.2164 23.256 80.1284 22.76 80.6084 22.312C81.2484 21.72 81.6484 20.696 81.6484 19.512C81.6484 18.424 81.2644 17.704 80.7844 17.224C79.9204 16.36 78.7684 16.328 78.0164 16.328H74.4164ZM76.6404 18.344H77.3764C77.7444 18.344 78.3844 18.376 78.7684 18.744C79.0564 19.016 79.1204 19.368 79.1204 19.672C79.1204 19.944 79.0724 20.424 78.7044 20.776C78.2884 21.192 77.6804 21.24 77.1524 21.24H76.2724L76.6404 18.344ZM89.5369 18.408L89.7929 16.328H82.6889L82.4329 18.408H84.7369L83.6809 27H86.1449L87.2009 18.408H89.5369ZM96.4283 27H98.9563L96.0923 16.328H93.8203L88.1883 27H90.8443L91.8523 24.984H95.8843L96.4283 27ZM92.7803 23.096L94.5723 19.336L95.4363 23.096H92.7803Z" fill="white"/>
</svg>
