<svg width="40" height="40" viewBox="0 0 40 40" fill="none" xmlns="http://www.w3.org/2000/svg">
<path d="M7.16667 28.4C8.63333 23.7 10.2667 18.1667 10.2667 18.1667C10.2667 18.1667 11.2667 23.9333 11.9 26.7667H13.6333C15.0333 24 17.7 18.3667 17.7 18.3667V26.7667H21L20.6 13.7667H17.2L14.1667 19.8C13.9333 20.2333 13.6333 20.9667 13.4333 21.5667C13.2667 20.3333 13.1 19.2333 12.8667 18.1667L11.9 13.7667H8.66667L4.23333 27.2C3.23333 25 2.66667 22.5667 2.66667 20C2.66667 10.4333 10.4333 2.66667 20 2.66667C26.3 2.66667 31.8333 6.06667 34.8667 11.1333H37.9C34.6333 4.53333 27.8333 0 20 0C8.96667 0 0 8.96667 0 20C0 25.3 2.1 30.1333 5.46667 33.7333L7.16667 28.4Z" fill="#E91919"/>
<path d="M39 13.7667H36.1666H31.1333H23.5L23.1666 16.6333H25.9333L24.6666 26.7667H27.9L29.1666 16.6333H37C37.2 17.7333 37.3333 18.8333 37.3333 20C37.3333 29.5667 29.5666 37.3333 20 37.3333C15.6666 37.3333 11.7333 35.7333 8.69998 33.1L7.83331 35.8333C11.2 38.4333 15.4 40 20 40C31.0333 40 40 31.0333 40 20C40 17.8333 39.6333 15.7333 39 13.7667Z" fill="white"/>
</svg>
