<svg width="66" height="66" viewBox="0 0 66 66" fill="none" xmlns="http://www.w3.org/2000/svg">
<path d="M66 3C66 1.34315 64.6569 0 63 0C61.3431 0 60 1.34315 60 3C60 4.65685 61.3431 6 63 6C64.6569 6 66 4.65685 66 3Z" fill="#E91919"/>
<path d="M46 3C46 1.34315 44.6569 0 43 0C41.3431 0 40 1.34315 40 3C40 4.65685 41.3431 6 43 6C44.6569 6 46 4.65685 46 3Z" fill="#E91919"/>
<path d="M26 3C26 1.34315 24.6569 0 23 0C21.3431 0 20 1.34315 20 3C20 4.65685 21.3431 6 23 6C24.6569 6 26 4.65685 26 3Z" fill="#E91919"/>
<path d="M6 3C6 1.34315 4.65685 0 3 0C1.34315 0 0 1.34315 0 3C0 4.65685 1.34315 6 3 6C4.65685 6 6 4.65685 6 3Z" fill="#E91919"/>
<path d="M66 23C66 21.3431 64.6569 20 63 20C61.3431 20 60 21.3431 60 23C60 24.6569 61.3431 26 63 26C64.6569 26 66 24.6569 66 23Z" fill="#E91919"/>
<path d="M46 23C46 21.3431 44.6569 20 43 20C41.3431 20 40 21.3431 40 23C40 24.6569 41.3431 26 43 26C44.6569 26 46 24.6569 46 23Z" fill="#E91919"/>
<path d="M26 23C26 21.3431 24.6569 20 23 20C21.3431 20 20 21.3431 20 23C20 24.6569 21.3431 26 23 26C24.6569 26 26 24.6569 26 23Z" fill="#E91919"/>
<path d="M6 23C6 21.3431 4.65685 20 3 20C1.34315 20 0 21.3431 0 23C0 24.6569 1.34315 26 3 26C4.65685 26 6 24.6569 6 23Z" fill="#E91919"/>
<path d="M66 43C66 41.3431 64.6569 40 63 40C61.3431 40 60 41.3431 60 43C60 44.6569 61.3431 46 63 46C64.6569 46 66 44.6569 66 43Z" fill="#E91919"/>
<path d="M46 43C46 41.3431 44.6569 40 43 40C41.3431 40 40 41.3431 40 43C40 44.6569 41.3431 46 43 46C44.6569 46 46 44.6569 46 43Z" fill="#E91919"/>
<path d="M26 43C26 41.3431 24.6569 40 23 40C21.3431 40 20 41.3431 20 43C20 44.6569 21.3431 46 23 46C24.6569 46 26 44.6569 26 43Z" fill="#E91919"/>
<path d="M6 43C6 41.3431 4.65685 40 3 40C1.34315 40 0 41.3431 0 43C0 44.6569 1.34315 46 3 46C4.65685 46 6 44.6569 6 43Z" fill="#E91919"/>
<path d="M66 63C66 61.3431 64.6569 60 63 60C61.3431 60 60 61.3431 60 63C60 64.6569 61.3431 66 63 66C64.6569 66 66 64.6569 66 63Z" fill="#E91919"/>
<path d="M46 63C46 61.3431 44.6569 60 43 60C41.3431 60 40 61.3431 40 63C40 64.6569 41.3431 66 43 66C44.6569 66 46 64.6569 46 63Z" fill="#E91919"/>
<path d="M26 63C26 61.3431 24.6569 60 23 60C21.3431 60 20 61.3431 20 63C20 64.6569 21.3431 66 23 66C24.6569 66 26 64.6569 26 63Z" fill="#E91919"/>
<path d="M6 63C6 61.3431 4.65685 60 3 60C1.34315 60 0 61.3431 0 63C0 64.6569 1.34315 66 3 66C4.65685 66 6 64.6569 6 63Z" fill="#E91919"/>
</svg>
