<svg width="186" height="186" viewBox="0 0 186 186" fill="none" xmlns="http://www.w3.org/2000/svg">
<path d="M186 3C186 1.34315 184.657 0 183 0C181.343 0 180 1.34315 180 3C180 4.65685 181.343 6 183 6C184.657 6 186 4.65685 186 3Z" fill="#E6E6E6"/>
<path d="M166 3C166 1.34315 164.657 0 163 0C161.343 0 160 1.34315 160 3C160 4.65685 161.343 6 163 6C164.657 6 166 4.65685 166 3Z" fill="#E6E6E6"/>
<path d="M146 3C146 1.34315 144.657 0 143 0C141.343 0 140 1.34315 140 3C140 4.65685 141.343 6 143 6C144.657 6 146 4.65685 146 3Z" fill="#E6E6E6"/>
<path d="M126 3C126 1.34315 124.657 0 123 0C121.343 0 120 1.34315 120 3C120 4.65685 121.343 6 123 6C124.657 6 126 4.65685 126 3Z" fill="#E6E6E6"/>
<path d="M106 3C106 1.34315 104.657 0 103 0C101.343 0 100 1.34315 100 3C100 4.65685 101.343 6 103 6C104.657 6 106 4.65685 106 3Z" fill="#E6E6E6"/>
<path d="M86 3C86 1.34315 84.6569 0 83 0C81.3431 0 80 1.34315 80 3C80 4.65685 81.3431 6 83 6C84.6569 6 86 4.65685 86 3Z" fill="#E6E6E6"/>
<path d="M66 3C66 1.34315 64.6569 0 63 0C61.3431 0 60 1.34315 60 3C60 4.65685 61.3431 6 63 6C64.6569 6 66 4.65685 66 3Z" fill="#E6E6E6"/>
<path d="M46 3C46 1.34315 44.6569 0 43 0C41.3431 0 40 1.34315 40 3C40 4.65685 41.3431 6 43 6C44.6569 6 46 4.65685 46 3Z" fill="#E6E6E6"/>
<path d="M26 3C26 1.34315 24.6569 0 23 0C21.3431 0 20 1.34315 20 3C20 4.65685 21.3431 6 23 6C24.6569 6 26 4.65685 26 3Z" fill="#E6E6E6"/>
<path d="M6 3C6 1.34315 4.65686 0 3 0C1.34314 0 0 1.34315 0 3C0 4.65685 1.34314 6 3 6C4.65686 6 6 4.65685 6 3Z" fill="#E6E6E6"/>
<path d="M186 23C186 21.3431 184.657 20 183 20C181.343 20 180 21.3431 180 23C180 24.6569 181.343 26 183 26C184.657 26 186 24.6569 186 23Z" fill="#E6E6E6"/>
<path d="M166 23C166 21.3431 164.657 20 163 20C161.343 20 160 21.3431 160 23C160 24.6569 161.343 26 163 26C164.657 26 166 24.6569 166 23Z" fill="#E6E6E6"/>
<path d="M146 23C146 21.3431 144.657 20 143 20C141.343 20 140 21.3431 140 23C140 24.6569 141.343 26 143 26C144.657 26 146 24.6569 146 23Z" fill="#E6E6E6"/>
<path d="M126 23C126 21.3431 124.657 20 123 20C121.343 20 120 21.3431 120 23C120 24.6569 121.343 26 123 26C124.657 26 126 24.6569 126 23Z" fill="#E6E6E6"/>
<path d="M106 23C106 21.3431 104.657 20 103 20C101.343 20 100 21.3431 100 23C100 24.6569 101.343 26 103 26C104.657 26 106 24.6569 106 23Z" fill="#E6E6E6"/>
<path d="M86 23C86 21.3431 84.6569 20 83 20C81.3431 20 80 21.3431 80 23C80 24.6569 81.3431 26 83 26C84.6569 26 86 24.6569 86 23Z" fill="#E6E6E6"/>
<path d="M66 23C66 21.3431 64.6569 20 63 20C61.3431 20 60 21.3431 60 23C60 24.6569 61.3431 26 63 26C64.6569 26 66 24.6569 66 23Z" fill="#E6E6E6"/>
<path d="M46 23C46 21.3431 44.6569 20 43 20C41.3431 20 40 21.3431 40 23C40 24.6569 41.3431 26 43 26C44.6569 26 46 24.6569 46 23Z" fill="#E6E6E6"/>
<path d="M26 23C26 21.3431 24.6569 20 23 20C21.3431 20 20 21.3431 20 23C20 24.6569 21.3431 26 23 26C24.6569 26 26 24.6569 26 23Z" fill="#E6E6E6"/>
<path d="M6 23C6 21.3431 4.65686 20 3 20C1.34314 20 0 21.3431 0 23C0 24.6569 1.34314 26 3 26C4.65686 26 6 24.6569 6 23Z" fill="#E6E6E6"/>
<path d="M186 43C186 41.3431 184.657 40 183 40C181.343 40 180 41.3431 180 43C180 44.6569 181.343 46 183 46C184.657 46 186 44.6569 186 43Z" fill="#E6E6E6"/>
<path d="M166 43C166 41.3431 164.657 40 163 40C161.343 40 160 41.3431 160 43C160 44.6569 161.343 46 163 46C164.657 46 166 44.6569 166 43Z" fill="#E6E6E6"/>
<path d="M146 43C146 41.3431 144.657 40 143 40C141.343 40 140 41.3431 140 43C140 44.6569 141.343 46 143 46C144.657 46 146 44.6569 146 43Z" fill="#E6E6E6"/>
<path d="M126 43C126 41.3431 124.657 40 123 40C121.343 40 120 41.3431 120 43C120 44.6569 121.343 46 123 46C124.657 46 126 44.6569 126 43Z" fill="#E6E6E6"/>
<path d="M106 43C106 41.3431 104.657 40 103 40C101.343 40 100 41.3431 100 43C100 44.6569 101.343 46 103 46C104.657 46 106 44.6569 106 43Z" fill="#E6E6E6"/>
<path d="M86 43C86 41.3431 84.6569 40 83 40C81.3431 40 80 41.3431 80 43C80 44.6569 81.3431 46 83 46C84.6569 46 86 44.6569 86 43Z" fill="#E6E6E6"/>
<path d="M66 43C66 41.3431 64.6569 40 63 40C61.3431 40 60 41.3431 60 43C60 44.6569 61.3431 46 63 46C64.6569 46 66 44.6569 66 43Z" fill="#E6E6E6"/>
<path d="M46 43C46 41.3431 44.6569 40 43 40C41.3431 40 40 41.3431 40 43C40 44.6569 41.3431 46 43 46C44.6569 46 46 44.6569 46 43Z" fill="#E6E6E6"/>
<path d="M26 43C26 41.3431 24.6569 40 23 40C21.3431 40 20 41.3431 20 43C20 44.6569 21.3431 46 23 46C24.6569 46 26 44.6569 26 43Z" fill="#E6E6E6"/>
<path d="M6 43C6 41.3431 4.65686 40 3 40C1.34314 40 0 41.3431 0 43C0 44.6569 1.34314 46 3 46C4.65686 46 6 44.6569 6 43Z" fill="#E6E6E6"/>
<path d="M186 63C186 61.3431 184.657 60 183 60C181.343 60 180 61.3431 180 63C180 64.6569 181.343 66 183 66C184.657 66 186 64.6569 186 63Z" fill="#E6E6E6"/>
<path d="M166 63C166 61.3431 164.657 60 163 60C161.343 60 160 61.3431 160 63C160 64.6569 161.343 66 163 66C164.657 66 166 64.6569 166 63Z" fill="#E6E6E6"/>
<path d="M146 63C146 61.3431 144.657 60 143 60C141.343 60 140 61.3431 140 63C140 64.6569 141.343 66 143 66C144.657 66 146 64.6569 146 63Z" fill="#E6E6E6"/>
<path d="M126 63C126 61.3431 124.657 60 123 60C121.343 60 120 61.3431 120 63C120 64.6569 121.343 66 123 66C124.657 66 126 64.6569 126 63Z" fill="#E6E6E6"/>
<path d="M106 63C106 61.3431 104.657 60 103 60C101.343 60 100 61.3431 100 63C100 64.6569 101.343 66 103 66C104.657 66 106 64.6569 106 63Z" fill="#E6E6E6"/>
<path d="M86 63C86 61.3431 84.6569 60 83 60C81.3431 60 80 61.3431 80 63C80 64.6569 81.3431 66 83 66C84.6569 66 86 64.6569 86 63Z" fill="#E6E6E6"/>
<path d="M66 63C66 61.3431 64.6569 60 63 60C61.3431 60 60 61.3431 60 63C60 64.6569 61.3431 66 63 66C64.6569 66 66 64.6569 66 63Z" fill="#E6E6E6"/>
<path d="M46 63C46 61.3431 44.6569 60 43 60C41.3431 60 40 61.3431 40 63C40 64.6569 41.3431 66 43 66C44.6569 66 46 64.6569 46 63Z" fill="#E6E6E6"/>
<path d="M26 63C26 61.3431 24.6569 60 23 60C21.3431 60 20 61.3431 20 63C20 64.6569 21.3431 66 23 66C24.6569 66 26 64.6569 26 63Z" fill="#E6E6E6"/>
<path d="M6 63C6 61.3431 4.65686 60 3 60C1.34314 60 0 61.3431 0 63C0 64.6569 1.34314 66 3 66C4.65686 66 6 64.6569 6 63Z" fill="#E6E6E6"/>
<path d="M186 83C186 81.3431 184.657 80 183 80C181.343 80 180 81.3431 180 83C180 84.6569 181.343 86 183 86C184.657 86 186 84.6569 186 83Z" fill="#E6E6E6"/>
<path d="M166 83C166 81.3431 164.657 80 163 80C161.343 80 160 81.3431 160 83C160 84.6569 161.343 86 163 86C164.657 86 166 84.6569 166 83Z" fill="#E6E6E6"/>
<path d="M146 83C146 81.3431 144.657 80 143 80C141.343 80 140 81.3431 140 83C140 84.6569 141.343 86 143 86C144.657 86 146 84.6569 146 83Z" fill="#E6E6E6"/>
<path d="M126 83C126 81.3431 124.657 80 123 80C121.343 80 120 81.3431 120 83C120 84.6569 121.343 86 123 86C124.657 86 126 84.6569 126 83Z" fill="#E6E6E6"/>
<path d="M106 83C106 81.3431 104.657 80 103 80C101.343 80 100 81.3431 100 83C100 84.6569 101.343 86 103 86C104.657 86 106 84.6569 106 83Z" fill="#E6E6E6"/>
<path d="M86 83C86 81.3431 84.6569 80 83 80C81.3431 80 80 81.3431 80 83C80 84.6569 81.3431 86 83 86C84.6569 86 86 84.6569 86 83Z" fill="#E6E6E6"/>
<path d="M66 83C66 81.3431 64.6569 80 63 80C61.3431 80 60 81.3431 60 83C60 84.6569 61.3431 86 63 86C64.6569 86 66 84.6569 66 83Z" fill="#E6E6E6"/>
<path d="M46 83C46 81.3431 44.6569 80 43 80C41.3431 80 40 81.3431 40 83C40 84.6569 41.3431 86 43 86C44.6569 86 46 84.6569 46 83Z" fill="#E6E6E6"/>
<path d="M26 83C26 81.3431 24.6569 80 23 80C21.3431 80 20 81.3431 20 83C20 84.6569 21.3431 86 23 86C24.6569 86 26 84.6569 26 83Z" fill="#E6E6E6"/>
<path d="M6 83C6 81.3431 4.65686 80 3 80C1.34314 80 0 81.3431 0 83C0 84.6569 1.34314 86 3 86C4.65686 86 6 84.6569 6 83Z" fill="#E6E6E6"/>
<path d="M186 103C186 101.343 184.657 100 183 100C181.343 100 180 101.343 180 103C180 104.657 181.343 106 183 106C184.657 106 186 104.657 186 103Z" fill="#E6E6E6"/>
<path d="M166 103C166 101.343 164.657 100 163 100C161.343 100 160 101.343 160 103C160 104.657 161.343 106 163 106C164.657 106 166 104.657 166 103Z" fill="#E6E6E6"/>
<path d="M146 103C146 101.343 144.657 100 143 100C141.343 100 140 101.343 140 103C140 104.657 141.343 106 143 106C144.657 106 146 104.657 146 103Z" fill="#E6E6E6"/>
<path d="M126 103C126 101.343 124.657 100 123 100C121.343 100 120 101.343 120 103C120 104.657 121.343 106 123 106C124.657 106 126 104.657 126 103Z" fill="#E6E6E6"/>
<path d="M106 103C106 101.343 104.657 100 103 100C101.343 100 100 101.343 100 103C100 104.657 101.343 106 103 106C104.657 106 106 104.657 106 103Z" fill="#E6E6E6"/>
<path d="M86 103C86 101.343 84.6569 100 83 100C81.3431 100 80 101.343 80 103C80 104.657 81.3431 106 83 106C84.6569 106 86 104.657 86 103Z" fill="#E6E6E6"/>
<path d="M66 103C66 101.343 64.6569 100 63 100C61.3431 100 60 101.343 60 103C60 104.657 61.3431 106 63 106C64.6569 106 66 104.657 66 103Z" fill="#E6E6E6"/>
<path d="M46 103C46 101.343 44.6569 100 43 100C41.3431 100 40 101.343 40 103C40 104.657 41.3431 106 43 106C44.6569 106 46 104.657 46 103Z" fill="#E6E6E6"/>
<path d="M26 103C26 101.343 24.6569 100 23 100C21.3431 100 20 101.343 20 103C20 104.657 21.3431 106 23 106C24.6569 106 26 104.657 26 103Z" fill="#E6E6E6"/>
<path d="M6 103C6 101.343 4.65686 100 3 100C1.34314 100 0 101.343 0 103C0 104.657 1.34314 106 3 106C4.65686 106 6 104.657 6 103Z" fill="#E6E6E6"/>
<path d="M186 123C186 121.343 184.657 120 183 120C181.343 120 180 121.343 180 123C180 124.657 181.343 126 183 126C184.657 126 186 124.657 186 123Z" fill="#E6E6E6"/>
<path d="M166 123C166 121.343 164.657 120 163 120C161.343 120 160 121.343 160 123C160 124.657 161.343 126 163 126C164.657 126 166 124.657 166 123Z" fill="#E6E6E6"/>
<path d="M146 123C146 121.343 144.657 120 143 120C141.343 120 140 121.343 140 123C140 124.657 141.343 126 143 126C144.657 126 146 124.657 146 123Z" fill="#E6E6E6"/>
<path d="M126 123C126 121.343 124.657 120 123 120C121.343 120 120 121.343 120 123C120 124.657 121.343 126 123 126C124.657 126 126 124.657 126 123Z" fill="#E6E6E6"/>
<path d="M106 123C106 121.343 104.657 120 103 120C101.343 120 100 121.343 100 123C100 124.657 101.343 126 103 126C104.657 126 106 124.657 106 123Z" fill="#E6E6E6"/>
<path d="M86 123C86 121.343 84.6569 120 83 120C81.3431 120 80 121.343 80 123C80 124.657 81.3431 126 83 126C84.6569 126 86 124.657 86 123Z" fill="#E6E6E6"/>
<path d="M66 123C66 121.343 64.6569 120 63 120C61.3431 120 60 121.343 60 123C60 124.657 61.3431 126 63 126C64.6569 126 66 124.657 66 123Z" fill="#E6E6E6"/>
<path d="M46 123C46 121.343 44.6569 120 43 120C41.3431 120 40 121.343 40 123C40 124.657 41.3431 126 43 126C44.6569 126 46 124.657 46 123Z" fill="#E6E6E6"/>
<path d="M26 123C26 121.343 24.6569 120 23 120C21.3431 120 20 121.343 20 123C20 124.657 21.3431 126 23 126C24.6569 126 26 124.657 26 123Z" fill="#E6E6E6"/>
<path d="M6 123C6 121.343 4.65686 120 3 120C1.34314 120 0 121.343 0 123C0 124.657 1.34314 126 3 126C4.65686 126 6 124.657 6 123Z" fill="#E6E6E6"/>
<path d="M186 143C186 141.343 184.657 140 183 140C181.343 140 180 141.343 180 143C180 144.657 181.343 146 183 146C184.657 146 186 144.657 186 143Z" fill="#E6E6E6"/>
<path d="M166 143C166 141.343 164.657 140 163 140C161.343 140 160 141.343 160 143C160 144.657 161.343 146 163 146C164.657 146 166 144.657 166 143Z" fill="#E6E6E6"/>
<path d="M146 143C146 141.343 144.657 140 143 140C141.343 140 140 141.343 140 143C140 144.657 141.343 146 143 146C144.657 146 146 144.657 146 143Z" fill="#E6E6E6"/>
<path d="M126 143C126 141.343 124.657 140 123 140C121.343 140 120 141.343 120 143C120 144.657 121.343 146 123 146C124.657 146 126 144.657 126 143Z" fill="#E6E6E6"/>
<path d="M106 143C106 141.343 104.657 140 103 140C101.343 140 100 141.343 100 143C100 144.657 101.343 146 103 146C104.657 146 106 144.657 106 143Z" fill="#E6E6E6"/>
<path d="M86 143C86 141.343 84.6569 140 83 140C81.3431 140 80 141.343 80 143C80 144.657 81.3431 146 83 146C84.6569 146 86 144.657 86 143Z" fill="#E6E6E6"/>
<path d="M66 143C66 141.343 64.6569 140 63 140C61.3431 140 60 141.343 60 143C60 144.657 61.3431 146 63 146C64.6569 146 66 144.657 66 143Z" fill="#E6E6E6"/>
<path d="M46 143C46 141.343 44.6569 140 43 140C41.3431 140 40 141.343 40 143C40 144.657 41.3431 146 43 146C44.6569 146 46 144.657 46 143Z" fill="#E6E6E6"/>
<path d="M26 143C26 141.343 24.6569 140 23 140C21.3431 140 20 141.343 20 143C20 144.657 21.3431 146 23 146C24.6569 146 26 144.657 26 143Z" fill="#E6E6E6"/>
<path d="M6 143C6 141.343 4.65686 140 3 140C1.34314 140 0 141.343 0 143C0 144.657 1.34314 146 3 146C4.65686 146 6 144.657 6 143Z" fill="#E6E6E6"/>
<path d="M186 163C186 161.343 184.657 160 183 160C181.343 160 180 161.343 180 163C180 164.657 181.343 166 183 166C184.657 166 186 164.657 186 163Z" fill="#E6E6E6"/>
<path d="M166 163C166 161.343 164.657 160 163 160C161.343 160 160 161.343 160 163C160 164.657 161.343 166 163 166C164.657 166 166 164.657 166 163Z" fill="#E6E6E6"/>
<path d="M146 163C146 161.343 144.657 160 143 160C141.343 160 140 161.343 140 163C140 164.657 141.343 166 143 166C144.657 166 146 164.657 146 163Z" fill="#E6E6E6"/>
<path d="M126 163C126 161.343 124.657 160 123 160C121.343 160 120 161.343 120 163C120 164.657 121.343 166 123 166C124.657 166 126 164.657 126 163Z" fill="#E6E6E6"/>
<path d="M106 163C106 161.343 104.657 160 103 160C101.343 160 100 161.343 100 163C100 164.657 101.343 166 103 166C104.657 166 106 164.657 106 163Z" fill="#E6E6E6"/>
<path d="M86 163C86 161.343 84.6569 160 83 160C81.3431 160 80 161.343 80 163C80 164.657 81.3431 166 83 166C84.6569 166 86 164.657 86 163Z" fill="#E6E6E6"/>
<path d="M66 163C66 161.343 64.6569 160 63 160C61.3431 160 60 161.343 60 163C60 164.657 61.3431 166 63 166C64.6569 166 66 164.657 66 163Z" fill="#E6E6E6"/>
<path d="M46 163C46 161.343 44.6569 160 43 160C41.3431 160 40 161.343 40 163C40 164.657 41.3431 166 43 166C44.6569 166 46 164.657 46 163Z" fill="#E6E6E6"/>
<path d="M26 163C26 161.343 24.6569 160 23 160C21.3431 160 20 161.343 20 163C20 164.657 21.3431 166 23 166C24.6569 166 26 164.657 26 163Z" fill="#E6E6E6"/>
<path d="M6 163C6 161.343 4.65686 160 3 160C1.34314 160 0 161.343 0 163C0 164.657 1.34314 166 3 166C4.65686 166 6 164.657 6 163Z" fill="#E6E6E6"/>
<path d="M186 183C186 181.343 184.657 180 183 180C181.343 180 180 181.343 180 183C180 184.657 181.343 186 183 186C184.657 186 186 184.657 186 183Z" fill="#E6E6E6"/>
<path d="M166 183C166 181.343 164.657 180 163 180C161.343 180 160 181.343 160 183C160 184.657 161.343 186 163 186C164.657 186 166 184.657 166 183Z" fill="#E6E6E6"/>
<path d="M146 183C146 181.343 144.657 180 143 180C141.343 180 140 181.343 140 183C140 184.657 141.343 186 143 186C144.657 186 146 184.657 146 183Z" fill="#E6E6E6"/>
<path d="M126 183C126 181.343 124.657 180 123 180C121.343 180 120 181.343 120 183C120 184.657 121.343 186 123 186C124.657 186 126 184.657 126 183Z" fill="#E6E6E6"/>
<path d="M106 183C106 181.343 104.657 180 103 180C101.343 180 100 181.343 100 183C100 184.657 101.343 186 103 186C104.657 186 106 184.657 106 183Z" fill="#E6E6E6"/>
<path d="M86 183C86 181.343 84.6569 180 83 180C81.3431 180 80 181.343 80 183C80 184.657 81.3431 186 83 186C84.6569 186 86 184.657 86 183Z" fill="#E6E6E6"/>
<path d="M66 183C66 181.343 64.6569 180 63 180C61.3431 180 60 181.343 60 183C60 184.657 61.3431 186 63 186C64.6569 186 66 184.657 66 183Z" fill="#E6E6E6"/>
<path d="M46 183C46 181.343 44.6569 180 43 180C41.3431 180 40 181.343 40 183C40 184.657 41.3431 186 43 186C44.6569 186 46 184.657 46 183Z" fill="#E6E6E6"/>
<path d="M26 183C26 181.343 24.6569 180 23 180C21.3431 180 20 181.343 20 183C20 184.657 21.3431 186 23 186C24.6569 186 26 184.657 26 183Z" fill="#E6E6E6"/>
<path d="M6 183C6 181.343 4.65686 180 3 180C1.34314 180 0 181.343 0 183C0 184.657 1.34314 186 3 186C4.65686 186 6 184.657 6 183Z" fill="#E6E6E6"/>
</svg>
