<svg width="10" height="10" viewBox="0 0 10 10" fill="none" xmlns="http://www.w3.org/2000/svg">
<path fill-rule="evenodd" clip-rule="evenodd" d="M1.66669 2.08333C1.43847 2.08333 1.25002 2.27179 1.25002 2.5V7.5C1.25002 7.72821 1.43847 7.91667 1.66669 7.91667H8.33335C8.56157 7.91667 8.75002 7.72821 8.75002 7.5V2.5C8.75002 2.27179 8.56157 2.08333 8.33335 2.08333H1.66669ZM0.416687 2.5C0.416687 1.81155 0.978235 1.25 1.66669 1.25H8.33335C9.0218 1.25 9.58335 1.81155 9.58335 2.5V7.5C9.58335 8.18845 9.0218 8.75 8.33335 8.75H1.66669C0.978235 8.75 0.416687 8.18845 0.416687 7.5V2.5Z" fill="white"/>
<path fill-rule="evenodd" clip-rule="evenodd" d="M0.491982 2.26106C0.623946 2.07254 0.883751 2.02669 1.07227 2.15865L5 4.90806L8.92772 2.15865C9.11624 2.02669 9.37604 2.07254 9.50801 2.26106C9.63997 2.44958 9.59412 2.70938 9.4056 2.84135L5.23894 5.75801C5.09547 5.85844 4.90452 5.85844 4.76105 5.75801L0.594386 2.84135C0.405865 2.70938 0.360017 2.44958 0.491982 2.26106Z" fill="white"/>
</svg>
