<svg width="24" height="24" viewBox="0 0 24 24" fill="none" xmlns="http://www.w3.org/2000/svg">
<circle cx="12" cy="12" r="12" fill="#E91919"/>
<path fill-rule="evenodd" clip-rule="evenodd" d="M8.66669 9.08333C8.43847 9.08333 8.25002 9.27179 8.25002 9.5V14.5C8.25002 14.7282 8.43847 14.9167 8.66669 14.9167H15.3334C15.5616 14.9167 15.75 14.7282 15.75 14.5V9.5C15.75 9.27179 15.5616 9.08333 15.3334 9.08333H8.66669ZM7.41669 9.5C7.41669 8.81155 7.97824 8.25 8.66669 8.25H15.3334C16.0218 8.25 16.5834 8.81155 16.5834 9.5V14.5C16.5834 15.1885 16.0218 15.75 15.3334 15.75H8.66669C7.97824 15.75 7.41669 15.1885 7.41669 14.5V9.5Z" fill="white"/>
<path fill-rule="evenodd" clip-rule="evenodd" d="M7.49198 9.26106C7.62395 9.07254 7.88375 9.02669 8.07227 9.15865L12 11.9081L15.9277 9.15865C16.1162 9.02669 16.376 9.07254 16.508 9.26106C16.64 9.44958 16.5941 9.70938 16.4056 9.84135L12.2389 12.758C12.0955 12.8584 11.9045 12.8584 11.7611 12.758L7.59439 9.84135C7.40587 9.70938 7.36002 9.44958 7.49198 9.26106Z" fill="white"/>
</svg>
