<svg width="10" height="10" viewBox="0 0 10 10" fill="none" xmlns="http://www.w3.org/2000/svg">
<g clip-path="url(#clip0)">
<path d="M8.33331 9.54167C8.29165 9.54167 8.24998 9.54167 8.20831 9.54167C6.87498 9.375 5.54165 8.91667 4.41665 8.20833C3.37498 7.54167 2.45831 6.625 1.79165 5.58333C1.04165 4.45833 0.583313 3.125 0.458313 1.79167C0.458313 1.45833 0.541646 1.125 0.74998 0.875001C0.958313 0.625001 1.24998 0.458334 1.58331 0.416667C1.62498 0.416667 1.66665 0.416667 1.70831 0.416667H2.95831C3.58331 0.416667 4.12498 0.875001 4.20831 1.5C4.24998 1.875 4.33331 2.25 4.45831 2.58333C4.62498 3.04167 4.49998 3.54167 4.16665 3.91667L3.87498 4.20833C4.37498 4.95833 4.99998 5.625 5.79165 6.125L6.08331 5.83333C6.41665 5.5 6.95831 5.375 7.41665 5.54167C7.74998 5.66667 8.12498 5.75 8.49998 5.79167C9.12498 5.875 9.58331 6.41667 9.58331 7.04167V8.29167C9.58331 8.625 9.45831 8.95833 9.20831 9.16667C8.95831 9.375 8.66665 9.54167 8.33331 9.54167ZM2.95831 1.25H1.70831C1.58331 1.25 1.45831 1.33333 1.37498 1.41667C1.33331 1.5 1.29165 1.58333 1.29165 1.70833C1.41665 2.91667 1.83331 4.08333 2.49998 5.125C3.12498 6.08333 3.91665 6.91667 4.87498 7.5C5.91665 8.16667 7.08331 8.58333 8.29165 8.70833C8.45831 8.70833 8.54165 8.66667 8.62498 8.58333C8.70831 8.5 8.74998 8.41667 8.74998 8.29167V7.04167C8.74998 6.83333 8.58331 6.66667 8.37498 6.625C7.95831 6.58333 7.54165 6.45833 7.12498 6.29167C6.95831 6.25 6.79165 6.25 6.66665 6.375L6.12498 6.91667C5.99998 7.04167 5.79165 7.08333 5.62498 7C4.49998 6.375 3.58331 5.45833 2.95831 4.33333C2.91665 4.16667 2.95831 3.95833 3.08331 3.83333L3.62498 3.29167C3.70831 3.20833 3.74998 3 3.70831 2.875C3.54165 2.45833 3.45831 2.04167 3.37498 1.625C3.37498 1.41667 3.16665 1.25 2.95831 1.25ZM7.91665 4.16667C7.70831 4.16667 7.54165 4.04167 7.49998 3.83333C7.37498 3.16667 6.83331 2.66667 6.16665 2.5C5.95831 2.45833 5.79165 2.25 5.83331 2C5.87498 1.79167 6.08331 1.625 6.33331 1.66667C7.33331 1.875 8.12498 2.625 8.29165 3.625C8.33331 3.83333 8.20831 4.08333 7.95831 4.125C7.95831 4.125 7.95831 4.16667 7.91665 4.16667ZM9.58331 4.125C9.37498 4.125 9.20831 3.95833 9.16665 3.75C8.99998 2.20833 7.79165 1 6.20831 0.791667C5.99998 0.750001 5.83331 0.541667 5.83331 0.333334C5.83331 0.125001 6.08331 -0.041666 6.29165 -0.041666C8.24998 0.166667 9.74998 1.66667 9.95831 3.625C9.99998 3.83333 9.83331 4.04167 9.58331 4.08333C9.62498 4.125 9.58331 4.125 9.58331 4.125Z" fill="white"/>
</g>
<defs>
<clipPath id="clip0">
<path d="M0 0H10V10H0V0Z" fill="white"/>
</clipPath>
</defs>
</svg>
