<svg width="24" height="24" viewBox="0 0 24 24" fill="none" xmlns="http://www.w3.org/2000/svg">
<circle cx="12" cy="12" r="12" fill="#E91919"/>
<g clip-path="url(#clip0)">
<path d="M15.3333 16.5417C15.2916 16.5417 15.25 16.5417 15.2083 16.5417C13.875 16.375 12.5416 15.9167 11.4166 15.2083C10.375 14.5417 9.45831 13.625 8.79165 12.5833C8.04165 11.4583 7.58331 10.125 7.45831 8.79167C7.45831 8.45833 7.54165 8.125 7.74998 7.875C7.95831 7.625 8.24998 7.45833 8.58331 7.41667C8.62498 7.41667 8.66665 7.41667 8.70831 7.41667H9.95831C10.5833 7.41667 11.125 7.875 11.2083 8.5C11.25 8.875 11.3333 9.25 11.4583 9.58333C11.625 10.0417 11.5 10.5417 11.1666 10.9167L10.875 11.2083C11.375 11.9583 12 12.625 12.7916 13.125L13.0833 12.8333C13.4166 12.5 13.9583 12.375 14.4166 12.5417C14.75 12.6667 15.125 12.75 15.5 12.7917C16.125 12.875 16.5833 13.4167 16.5833 14.0417V15.2917C16.5833 15.625 16.4583 15.9583 16.2083 16.1667C15.9583 16.375 15.6666 16.5417 15.3333 16.5417ZM9.95831 8.25H8.70831C8.58331 8.25 8.45831 8.33333 8.37498 8.41667C8.33331 8.5 8.29165 8.58333 8.29165 8.70833C8.41665 9.91667 8.83331 11.0833 9.49998 12.125C10.125 13.0833 10.9166 13.9167 11.875 14.5C12.9166 15.1667 14.0833 15.5833 15.2916 15.7083C15.4583 15.7083 15.5416 15.6667 15.625 15.5833C15.7083 15.5 15.75 15.4167 15.75 15.2917V14.0417C15.75 13.8333 15.5833 13.6667 15.375 13.625C14.9583 13.5833 14.5416 13.4583 14.125 13.2917C13.9583 13.25 13.7916 13.25 13.6666 13.375L13.125 13.9167C13 14.0417 12.7916 14.0833 12.625 14C11.5 13.375 10.5833 12.4583 9.95831 11.3333C9.91665 11.1667 9.95831 10.9583 10.0833 10.8333L10.625 10.2917C10.7083 10.2083 10.75 10 10.7083 9.875C10.5416 9.45833 10.4583 9.04167 10.375 8.625C10.375 8.41667 10.1666 8.25 9.95831 8.25ZM14.9166 11.1667C14.7083 11.1667 14.5416 11.0417 14.5 10.8333C14.375 10.1667 13.8333 9.66667 13.1666 9.5C12.9583 9.45833 12.7916 9.25 12.8333 9C12.875 8.79167 13.0833 8.625 13.3333 8.66667C14.3333 8.875 15.125 9.625 15.2916 10.625C15.3333 10.8333 15.2083 11.0833 14.9583 11.125C14.9583 11.125 14.9583 11.1667 14.9166 11.1667ZM16.5833 11.125C16.375 11.125 16.2083 10.9583 16.1666 10.75C16 9.20833 14.7916 8 13.2083 7.79167C13 7.75 12.8333 7.54167 12.8333 7.33333C12.8333 7.125 13.0833 6.95833 13.2916 6.95833C15.25 7.16667 16.75 8.66667 16.9583 10.625C17 10.8333 16.8333 11.0417 16.5833 11.0833C16.625 11.125 16.5833 11.125 16.5833 11.125Z" fill="white"/>
</g>
<defs>
<clipPath id="clip0">
<path d="M7 7H17V17H7V7Z" fill="white"/>
</clipPath>
</defs>
</svg>
