<svg width="14" height="14" viewBox="0 0 14 14" fill="none" xmlns="http://www.w3.org/2000/svg">
<path fill-rule="evenodd" clip-rule="evenodd" d="M13.7514 7.07262C13.7514 7.55787 13.6987 8.03014 13.5975 8.48618C13.8551 8.99739 14 9.57271 14 10.1821C14 12.2903 12.2665 14 10.1279 14C9.46531 14 8.84301 13.8353 8.29727 13.5464C7.90052 13.6186 7.49224 13.6568 7.07408 13.6568C3.38641 13.6568 0.396754 10.7096 0.396754 7.07262C0.396754 6.61983 0.443674 6.17678 0.53175 5.74996C0.194262 5.18194 0 4.52304 0 3.8187C0 1.70892 1.73354 0 3.87288 0C4.62935 0 5.33561 0.215035 5.93238 0.585869C6.30444 0.522575 6.68556 0.489306 7.07408 0.489306C10.7626 0.489306 13.7514 3.43731 13.7514 7.07262ZM9.14172 11.2338C9.73439 10.992 10.1904 10.6511 10.4991 10.2194C10.8086 9.78694 10.9666 9.29277 10.9666 8.75072C10.9666 8.29711 10.8753 7.90762 10.695 7.59034C10.5147 7.27549 10.262 7.01258 9.94264 6.80729C9.6282 6.60523 9.24462 6.43321 8.7993 6.29364C8.36056 6.15488 7.86421 6.02586 7.3234 5.91225C6.89619 5.81488 6.58504 5.73941 6.39984 5.68829C6.21875 5.6396 6.03766 5.56982 5.86233 5.48299C5.69276 5.3986 5.55859 5.29961 5.46475 5.18438C5.3742 5.07727 5.33058 4.95149 5.33058 4.80219C5.33058 4.55713 5.4664 4.35021 5.74462 4.17087C6.03354 3.98343 6.42371 3.8893 6.90113 3.8893C7.41724 3.8893 7.79177 3.97369 8.01649 4.14247C8.24779 4.31612 8.44946 4.562 8.61574 4.87359C8.75979 5.11703 8.88984 5.28743 9.01496 5.39698C9.14831 5.51383 9.34257 5.57388 9.58951 5.57388C9.86115 5.57388 10.0925 5.47894 10.2752 5.29068C10.4571 5.10486 10.5493 4.89063 10.5493 4.65531C10.5493 4.41107 10.4785 4.1587 10.3402 3.90472C10.2036 3.65317 9.98462 3.41217 9.69076 3.18496C9.39937 2.96019 9.02895 2.77842 8.58857 2.64372C8.15066 2.50902 7.62632 2.44086 7.03036 2.44086C6.28378 2.44086 5.62526 2.5431 5.07129 2.74515C4.50908 2.94883 4.07282 3.24906 3.77484 3.63288C3.47357 4.01913 3.32129 4.46787 3.32129 4.96448C3.32129 5.48624 3.46698 5.93011 3.75344 6.28471C4.03577 6.63282 4.42183 6.91115 4.9009 7.11158C5.36844 7.30876 5.95699 7.4816 6.6509 7.62766C7.16042 7.73315 7.57199 7.83459 7.87573 7.92709C8.1663 8.01797 8.40583 8.14781 8.58857 8.31497C8.76143 8.47563 8.84622 8.68012 8.84622 8.93897C8.84622 9.26842 8.68488 9.53783 8.35151 9.76097C8.01155 9.98981 7.55882 10.1067 7.00649 10.1067C6.60562 10.1067 6.27884 10.0482 6.03683 9.93625C5.79648 9.82346 5.60798 9.67983 5.47627 9.5078C5.34045 9.33172 5.21204 9.10613 5.09351 8.83835C4.98733 8.5941 4.85562 8.40341 4.7017 8.27439C4.54118 8.1405 4.34281 8.07315 4.11397 8.07315C3.8341 8.07315 3.59951 8.15836 3.41677 8.32876C3.23239 8.49998 3.13855 8.70933 3.13855 8.94952C3.13855 9.33659 3.28178 9.73663 3.56576 10.1391C3.84645 10.54 4.21604 10.8629 4.66465 11.1015C5.29271 11.4301 6.09692 11.5965 7.05588 11.5965C7.85515 11.5965 8.55647 11.474 9.14172 11.2338Z" fill="white"/>
</svg>
