<svg width="16" height="10" viewBox="0 0 16 10" fill="none" xmlns="http://www.w3.org/2000/svg">
<path fill-rule="evenodd" clip-rule="evenodd" d="M8.78466 9.9582C8.78466 9.9582 9.07343 9.92305 9.22133 9.74902C9.35672 9.58956 9.35202 9.28864 9.35202 9.28864C9.35202 9.28864 9.33402 7.88349 9.92955 7.67602C10.5165 7.47198 11.2701 9.03487 12.0699 9.63585C12.674 10.0902 13.1326 9.99078 13.1326 9.99078L15.2697 9.9582C15.2697 9.9582 16.3872 9.88276 15.8574 8.91999C15.8136 8.84111 15.5483 8.20756 14.2688 6.90614C12.9283 5.54386 13.1083 5.76419 14.722 3.40742C15.7048 1.97227 16.0977 1.09609 15.9748 0.721437C15.8582 0.363077 15.1351 0.458239 15.1351 0.458239L12.7296 0.474528C12.7296 0.474528 12.5511 0.447951 12.4189 0.534541C12.2898 0.619416 12.206 0.817456 12.206 0.817456C12.206 0.817456 11.8257 1.92769 11.3178 2.87245C10.2465 4.86486 9.81843 4.97031 9.64313 4.84686C9.23542 4.55794 9.33715 3.68776 9.33715 3.06964C9.33715 1.13809 9.60479 0.333071 8.81675 0.124742C8.55537 0.0552989 8.36286 0.00986093 7.69377 0.00214504C6.83531 -0.00728548 6.10909 0.00557431 5.69746 0.225906C5.42357 0.372507 5.21227 0.700004 5.3414 0.718865C5.50026 0.742012 5.86024 0.825172 6.05118 1.1098C6.29769 1.47759 6.28908 2.30233 6.28908 2.30233C6.28908 2.30233 6.43072 4.57595 5.95806 4.85801C5.63408 5.05176 5.18958 4.65654 4.23407 2.84845C3.74497 1.92254 3.37561 0.898902 3.37561 0.898902C3.37561 0.898902 3.30439 0.70772 3.17683 0.604841C3.02267 0.48053 2.80747 0.44195 2.80747 0.44195L0.521607 0.458239C0.521607 0.458239 0.178063 0.468527 0.0520703 0.632275C-0.0598359 0.777162 0.0434621 1.07808 0.0434621 1.07808C0.0434621 1.07808 1.83318 5.6656 3.86001 7.97779C5.71859 10.0971 7.82837 9.9582 7.82837 9.9582H8.78466Z" fill="white"/>
</svg>
