<svg width="14" height="14" viewBox="0 0 14 14" fill="none" xmlns="http://www.w3.org/2000/svg">
<path fill-rule="evenodd" clip-rule="evenodd" d="M7.02643 13.8797H7.02931C10.8726 13.8781 13.9985 10.7665 14 6.9424C14.0007 5.08877 13.2763 3.34581 11.9603 2.03457C10.6442 0.723268 8.894 0.000801086 7.02924 0C3.18704 0 0.059972 3.11193 0.0584429 6.93692C0.0579198 8.15961 0.378906 9.35303 0.988922 10.4051L0 14L3.69529 13.0353C4.71344 13.588 5.85978 13.8793 7.02643 13.8797ZM10.3032 8.43612C10.4247 8.49455 10.5067 8.534 10.5417 8.5922C10.5853 8.66447 10.5853 9.01153 10.4402 9.41651C10.295 9.8214 9.59917 10.1909 9.2645 10.2407C8.96444 10.2853 8.5847 10.304 8.16747 10.172C7.91449 10.0921 7.59008 9.98548 7.17453 9.80687C5.54167 9.10518 4.43819 7.53016 4.22964 7.23249C4.21503 7.21164 4.20482 7.19706 4.19912 7.18948L4.19771 7.18761C4.10554 7.06522 3.48792 6.24511 3.48792 5.39633C3.48792 4.59788 3.88201 4.17937 4.06342 3.98672C4.07585 3.97353 4.08728 3.96139 4.09751 3.95026C4.25716 3.77672 4.44587 3.73333 4.56198 3.73333C4.67808 3.73333 4.79432 3.7344 4.8958 3.73947C4.90832 3.7401 4.92135 3.74002 4.93481 3.73995C5.03631 3.73935 5.16285 3.73862 5.28769 4.03703C5.33571 4.15187 5.40597 4.32211 5.48008 4.50167C5.62996 4.86481 5.79556 5.26605 5.8247 5.32411C5.86825 5.41088 5.89727 5.51207 5.83922 5.62781C5.8305 5.64516 5.82244 5.66154 5.81474 5.67719C5.77114 5.76578 5.73906 5.83095 5.66505 5.91695C5.63595 5.95077 5.60587 5.98722 5.5758 6.02367C5.51587 6.0963 5.45596 6.16892 5.40378 6.22065C5.31659 6.30709 5.22582 6.40087 5.32742 6.57441C5.42902 6.74795 5.77858 7.31557 6.29637 7.77522C6.85297 8.26931 7.33672 8.47814 7.58193 8.58399C7.62981 8.60466 7.6686 8.6214 7.69706 8.63558C7.87116 8.72237 7.97277 8.70785 8.07438 8.5922C8.17599 8.47651 8.50978 8.08602 8.62588 7.91251C8.74197 7.73904 8.85814 7.76793 9.01776 7.82576C9.17744 7.88366 10.0338 8.30296 10.2079 8.38971C10.2419 8.40666 10.2737 8.42195 10.3032 8.43612Z" fill="white"/>
</svg>
